<mxfile host="app.diagrams.net" modified="2024-01-06T13:04:30.596Z" agent="Mozilla/5.0 (Windows NT 10.0; Win64; x64) AppleWebKit/537.36 (KHTML, like Gecko) Chrome/120.0.0.0 Safari/537.36" etag="S56qRfnkOnnp5Xe_-sM-" version="22.1.17" type="device">
  <diagram id="rJiUKNe2Lz7fERgA7k4a" name="Page-1">
    <mxGraphModel dx="1878" dy="1128" grid="1" gridSize="10" guides="1" tooltips="1" connect="1" arrows="1" fold="1" page="1" pageScale="1" pageWidth="850" pageHeight="1100" math="0" shadow="0">
      <root>
        <mxCell id="0" />
        <mxCell id="1" parent="0" />
        <mxCell id="ycRzXGUNBEVxTpP__h8B-1" value="" style="shape=image;verticalLabelPosition=bottom;labelBackgroundColor=default;verticalAlign=top;aspect=fixed;imageAspect=0;image=data:image/png,iVBORw0KGgoAAAANSUhEUgAAARIAAAC4CAMAAAAYGZMtAAABO1BMVEX///83NTW75vvT7/wSh7E0MjIxLy+/vr63tra6ubkqKCgfHBwuLCz7+/sAhK+5uLgjICAAfavw8PAmJCQAAAAbGBj29vaNqLW/6//t7e0XExPn5+fv7+8faoXEw8OCgYGtrKzc3NxxcHCfnp7Q0NBSUFCTkpJ9fHxGRETLy8s8OjqnpqZvbm6bmpo4MS7C7/9bWlphYGBNS0ucrrbc9f+LiooqIBwvkbfc6vFSn8Dj7/S81+TM7Pw0PkMbc5OZw9cAd6iMvNLp/f8xRk8uTlsmXXIdcI6RvtRysMuswcqFnqpldHtTXGGx0eAWf6WTsb9SSEMnGxYAWnhth5RHUlgaPkxWZGqTpayCkJYuTVt9iY9mn7dPcH8sHRTCz9Y3iakYAAAAa5IoNDlJXmkIR11ZlK0PLzwAESIRGh9zlFhmAAAgAElEQVR4nO19CXvaSLa25Fi7AIGQbJADEogdbCDGG0mIO+3EsYM9WTq9zO25M3Nn+n7//xd8tUqlhc2x08ncnDxPDEJL1VvnvOec2sRx3+W7fJfv8l2+ywLx/uwCPKzYm59Wf5CCfD2ypMWZnwoMJPXOw5XmaxB38U+OHH5mUJBH8RMLyx+R2bBIX1iCxibVcAbsr9HCj8OPlVL4sVjiouKsoJbKBuX78uIEn3r4T9thfo0axCikDHsSfPSLvfhNm+yXAJ4ACOmrJONAN4JyutgoBgZzVjXCtK1y+LkR/OIXG/Gb11itGfjkg0I/2Ak7+yqEIlFwyYcS1n6vPAzOcXifvaRVdIPPk0BJfE2Lt7k7Yb50KI6FNj008rmvUZp7+O+A1qctwv8zXTFo83qxxVyQGRlBnTi3SPnTt4wI9wDxigwBOUX6cztHL+5+VskfTIZYTewyMYCqgbS5pvOk0eWuaTDN7wu6FRBLrkj1wLfEuNnYRcYtZfgyAW+ikUNO8ev02HtGFf0dFPH3nqZP0B+e59WB5LZ0QxBC/1KoWoIeMIBraaSeFUtQ42YzZtwSNzQIeHJgde0x9zWK3TM1qB4FC1u6XObVOrR7Hopqqjr8K0rYAvyWBb6blDOrGD58mYG9Tcin/SKDUU01sBZ6ZZ1e/ZUqidMQ9Br4OxQ16HJ7Fs/rzR/+ZvBRMa3xaNTQDAiQ4eJL/bbKlzERDSxeraFPucBxT8rV8DETw8Rue0+ll+cY+v6qRAGVN/vSUOfF/nT+FkIhtK8MgY+LIIr4oIjr7vctgddxrWsGL44RFlWJ3rhniaHfrmsCYdK2zuMPTrmcFpM4Kce+rGS6sJ6iKcL/j45EXHs9AQiLzdvfBs2aacBzLWgmDtAWoQuNoNAIPJNc1pTgKW6Z17CRDHVNIg8mahUV90+G5IdHb56Jy2q/ABNd1fFlSElcTeAFAfqWiqHTGlXKej94jgT4CatTXxUJpY50LR77w3s1k8e+lPzwaH51/cw4ShrIJnI0/aEyBrYm8r0MV+hrlCag/9GDGgNExDEyopbJW9haJqYZD2KA1I3ksS8iPzy6/fDx3ZEqfh4eSAzIOkJDtgtNSxepc64A/xOEJOCLIKAotWXwOrYs1xJSorRq8c9IAjMQjqMj/R7QCEVotEaayvOUL4FH1gOiUIA7V134CSAiqEhbOgG3sNIv9xPHHlp+mF591O4ZDoyJCLmFaAD0yEKbmg2AhzebEIi+yfMa0h0PuOxWvHCFtirufSkksJy9+SAeqQvhEERdp2DtU3n28uXLZ8+edXkBflsFjIEaPtMH5KJSC6hDRKqAdO0hUCNMuSVVELrxLkxfFY1c5MgDdy6dvbk2U9UD1XVfePbyp0/VZnPUBd/5lz9eXFw8hkL+4M8/dhEoALoFJKReHYIATAQePMj/qiAtMFseTKXBYYGHDqkA/ppx0uiVhZhTftAcOfPm2jKTzha2+zNS/VdXuUp9pO4LLy8ev3q8QF5dvNwX+FZ90m/wahouRx+vdUi3ag3rgD0EtqK2fBiYwLNNGJLYwD+ZMV+b6WvAKUXMxn1AQLzfVENMgCE8+/HHUAWupMpgfLT/jFGKV1ASqABQ9IYiSU9+/uX6bRIXAT1IHOLoxIcKo7Y6XGEEc0gMRKErAvuJmo0HVEjQI3zbfLCQze61tUgoCg3l2a8XbDXff8hVeo2j/YvnNzc32e00AT/cPH+OELrgj+SBlHsC5effPnVp1MY8oosr17SgwlQ7mQEugtoHSbMDiFgcRyP5ATzRjHRRVh/KG/utMsunhCcitvD8H38FvqH5bv8CV/40wOR0ATjP/0suN6UnVH7+AGCJKEt3ZwtwSqWrQoWZ9CaGig7rQwCED+xK6Ebq67VNqEETVnFqvTUHkDYUeWwxCgLhuPjx+lWAxc1N/vjycnsOysn//usNrnF2dkw+vD5NV5jt7PnfDEP2Akx2dnaurschKvovuwfzn8ca+a6SMojjDorQALfKbCknUEUA+7CGMqo+hNkUBqoZNJ3AE2O5aGE0UG2zU3zqoCw8385e4mOzGUYif7YIkvz0/GZfLRw+ejp9QzHZub368JESiyjoSWcvthUuU9Mg3bAaIOtIhfQRO1DWbT1At71TLasBHro+7P5ItKP63zdBa5/hc+2//wq/nSJMsq/P8ujHU45Acnwch4R7vn1z1OAeQYGw7GC53bn+qC5KIsWxwlVE5Id7zKhPG3dC6COGWn1rdP89S14/sBhBVBu/PRm8hHA8B2iMZrTts+f09KssVos8PkpUgUCSn8aUJXta+Mf29qvf5cNHROaz2yuCytV1NzU2FoY5dwhNSey6gQbk2sS49JEUFr5XHN07tXqjMm0rUe1e/wxUu/34FXEl/zzJ06r9Ri+Yo0P5kxn4m73kXqMzOQxJ/nyaj0Eyd+EPF/sBJE+3drfmt1RXfnmbcEEwCdKRAoljmSDiTUzaTaWOpCBQLQzLfemew1avTwEBBjP6BTuF90GF/uUHdvCMXvI3bCqXXBb9D0HLzjAk2WPuMqYlee4T+nv0hkLyaAtIiEqqquDvQtv1uUzBk6t8GBqYLSkgF9fQatL9OhunZgWAdK8RHm+mh1dhhR4P5rSK/0MvuiJHoLoASDgAWt7GkORPuBiTZC/tf6EPF/1DFhIkM6IqOx/a6cmUoOq6qmlmCJmgNgMM/IZhVO8XEbta1umDPn7AeIASHz4Pa3SzzxFDyFN2df6dpweOsxCSGfofqkd+xoWGhv7LvzhzH+MDR4GW7AaYMKqymGpZ0duuQjDwR5auD+4XkbpBQwD17dXtzpMnU1Jklg3+8DBX5EE8wjXaw/G7C26WR7Qx46Z5CMZZHigHhAS4HcIswIIAQtnsbDrlGkSpfpqGZBLKLlWV26u3q0ERqxXMpSW3oYkAn3vlEUkwKSCfACA7t0GJ5ywkF1WkJrC2nPtuH4Tx26fcCdQBeOg0D/Xj+JjDkIAWO8YAnp8BRE5ReT1yu/dv0iBhVOX26tNKULqjnpJzq20NBFFqP3efvsZrEIcmIA3ZmW3tBnr9miXIm79z0A9DsrD/2H7+HBMrd5mHxMmdvYBQzWYIkhdTqDHIZk4gNHnSgm/w/Z7/nCQTqioBKG9X9VeJqmmq8CRRbCr3GI9kJoRVQ0C2ntLyHkZ9xk91DnsUbkK1BxrRPJ8FsQh3CSE5Q/Z8CRUGkjHUnHPw9x/0cfi6m8WQQPsJQFnca8WIYI5k+R5jVsVUCSAfISDzLch3ISTRyPz574AyQNjBlS5O8+QXyB1nx3kQvNlBAMedQ6U4zUIVwST7nhYZB8DZZZCE/gcS7UpQ9PZAUlbM4NpASiMaBHY/IECwLIJk+58D7hJyazN/eXKeJajA6p/nkzfPI3LJoJMek34fl0DyJM3lpIFSHy8HRRcmknyPRtPTsM2I+vVOCMjW1qNFkLx6V8gABOz3wI2ccdPLfDaL2ZabJuh+inwPie2z7+Bnb/IH8cpvVkKytYVC/SdSs7tw/FDQ+aqiyPeX+jpjg5LIDuSQrdWQbL9EfcJ14ni5zBwYUP489fY4V0YuK4u4pl1+d0T7Ef4WPCLucuKcoijShE8DBaRg46akyPfYzzogtKp3f7lFpJoGSTwkv/k7bBIccOWRYz17vf1ivvAh0Otk88dzG3U10Z4VQEBrQIK9j5zLSUpViHkfQTfbrR4ApHJ/4ZnTMImKAJu53Yqq72JItv8LXFt5Qdp6G5kGd7IYkuNsfvs1inX9P5i7rAkJBOUJwESRlElbFQUooqirqjCqupKUkyv3OHjTIwme2gAGO4/bc1DeR+fxxA3V/jJwwbPlj7kENAwxy3A2tRkkx4drQgKo3lEAKDlJqreGjUZj2K9NBgAOgIfcuT8/w9kjyiKTJxESSUAyi0MCW9wGDoZ+P10WRZ9h9ZmDc/7yirlL9nR9SLYAK+fkHKAUKgpgVFmuePcZv1dMnaiIK9+mlSKEZCtuOBARPgNTGyz5/HTF084g+9Yu2Jtkz0NIFnucABJg5hW33gO6oeSAcsiy0nHut1+kioaKgIpUpVzCZrCyhm0YhST7b3C9v98C/uT08vz8/PVsNp8vJ7gpRGTyU/Q2s0frQwIr7w8NVTW7/UHF973SfffAl8ZkHACk1pWz9FKEkBxGe0+zO+AOs4uau7YVn0MlGvwRuct2fhpCsgoRCImLmQ+6XWXlEzcWBbteQW1JIC9Y0EQMJNHAJPsE3OJy++J3A0YDayjvHHJP7yfgiGFUF9zmcCNIvCL1vLquCdLKh24mVQuHq926Ajz6AiVhMuEYv2ZdDuX8j/fLdeBIzudnaz/5bHqZxq6rIeG4EclL2/Vma6gXG/c5LFFoYKNRRzmUOi5ke6bE+QQkEKTn+0bDgclu9vJkjQefzEAOGICbPQ/vv9LhbHGeRgM0WQJ+x20V729SWgcPeQt6U8J9cguLERb5cDsBCQLp5uVRcQIYZTpboSj29PVpxGoAlWxtAMkuN6R9SQLf68gwHFFq95TW9LCnAbyaw3nBIruJkEkkfs33QB3zKGnJX/TXWXfWOc2+yMc9OWM3Kx3OYSdQEl4we1zBV1yP8+7F69RweGbWlBwZM1tsxyEkUcvJ12Hakt0+PZ+uzyKF+WWeRSV7uQmV/LDPZjdmG7QmQOU+4ta9NqIRURwoQSflkhZiLId1w/kBhOT09XR6cnKW2SBcmp6GoGxkNwdNlWdFKKOFS87nW46HO3f1Btslt6QkYaEjaU52Ag0HBa152PLH//2hOlmvdCeXedphf7g+JLvzo3ingG5N7sNqcohGYDCihLfLLCkKYzmPWEjglDDWkkDivxSR+clJiSrT2SkeGmRC15V2s9tOjP0JgmrUPzueb6JoROTrkX7sZZAwkQlLsHkICWMD2VWp8MkLoE2vLoajlgu+TdEg1+H6kBx8UGOAiO12V1UtLbE0cjPBxKoO5WiXnL2sMEyxnwZqQfrPzmjnQP50JcmSEb/nv/6+D8NOYD2v2Vuv0JHZuxgiQxCYKHJv0GwXP0NTbBSfCepEig0QLtMS1nICNQmT3nPcfQhz/8x8uaLQUdDsxTsY3E23GURW2k185qMwlGAmnFOkEteZrJ9pRcVBvblhMLImJBE1IbzI9LGC1Cd/CZppepk/XlGAk8DMLv4OHBZrNiuU5OBjYsBPrTuO4/mdnKsAfJ078ayHpliZfSWXpMGl5WHVhAwFMwU4ebF9ApwIHLdYqL/2NI7JzU9/8dZXkoNrNY4I4BKiGbbj33HldAVOcBMFEIyklHx55MgU/RCN7t6w156fzbbzeMoEtygnPs+fI645C8P59ywiy5Xk4CrufwU0FSl8lu3cwXLgvHzEq6mALm8l1g+jEPYxe+1f8+EkAm6Sdncgx/n86ZTFJH++trs5uH0XR2Q40nVe/7yVnwMLJnmTReODi3OchJrAeO09Q0bOP0hsjhDBkLCWOUVGA6gVBHXnJxSTSJS2XEkSzgY0rSzlqoKujz8jKJloqH81tzA7Ww4JqyawK+nmL+GVfVJF+Nn9X1T/WdBLkIHTCJAfQpEvHMc5Q2lBlr3lUiXZnSGrEUUxdDp6MycruZaqju8cvaJVPVVpyfjgCn5jy/8IRFn/HNH2yf1rOyBc7/+hmRJnLwBvZBAQMCU8zqNx0WMS0WXRVK35ukwC4ngBDrr1W63RWCVThQXRLviy4g617h29b99EKpLGq1SWu+EoJsATP//dxBNP7SJGBOpFRrzBlX8BHjRHajM9hfqR3T7jInOz8q/XNRugI5BJW2SQot7qqnQZU8aXpaZo3CnrG6kiYJEV8y5WBAZRPc9uv9o/Auzkcty/0aAw6mbsP0cTTs6zcO7AKcSFm784gZMu8KSTMAFm+wSWms3BLVpJqTfheA2OzHp9URd4Da6gtjuy3C/eYSR4qKojObdqxHSVmkToZJ7fvvl1f/9IhLMCILWeg7tL75GyQG1AM9Ugrcyg0eS38YSbIB2KIrIkADjYwcwqjNFwje14FTmHhkCFMppCX1IUN7ZKa7VkxkZ3sEpFoByuwORRBBMUndyYMp4icQy0w/4JVBZNIoFzKsh8RqAxJ3gSRfY4Q0wnpiNL1PPgA/U14ZqSDEBFkQYNtYyR8GWvtlkHrN3WWmsOqq/o6NuNYLKFfOmrv2D3Ckf+qjd46h6G5Bjhg+czznBPQPbkPJsISJbOoLgOIzSLGaCwPaAq9QbZmaKQ86S0BeULEeGH7roTUVaZTgSTR09RGPtHBVYbRmneexStzfPB3GhoRTABOjmj2TJckpKfRRBZTCS78zY7l6QcGbRxJFmqt8lGSn6nUF3b8ZRGrrT+RJQV8VqUYh89gvaAAhQ4iRGFJ/kzG+XFrxGVwtwQ6sxxSCLg39aaiABijWZ6ZTdSWACKLxGLKVU4d80sx+54srSB415FJ1FMDs9BJP++AzsOsZIAWj0lk5KQcznGwUj+JPA1+dMoqkt05DreP8JbMcpwlE6mQ+KKju2t2fLehjMeN8RkCxgPnEMPylVDaoFZIz/F6yryZxwObMnKk2w2ZjQLETmYdWNdz2KbV8txyvDCOb9eKbMWJv7GLnszTKCi5NFotfMe9aKQpVonZBEO0ZYsQiqbP326HiK7Wx/exSZfNXKS5FbbfHwXinAQx3a4NaZV3CVhXsUnuzFMnp6+gMWsR4Z4yOIb4Gzwh+NjCMg0BsgiRBIqAnfzgF1oSqUzjM8FZ1ypw9kPs3J8ld/ZitXrcPpXUKzMMdt5Twc38iQSyQJA5nFAFnjfg61P7xLTW8Wa5DleR85lOks6nx8IEW5laB83nkeHj0A0b28zmBxHsAGZ3mVCQxYgsrv1C+toBLKgQBCwxXg5j/MX6/6qETbvzqNgGzpjBEsmc5wY70X6AWK1+WECkHSj2d3dEVmbEcZyC8+INmivhuN/jjJId18UumoEIYkJ7JY9PabT1sjctXz29Hyagke6igBAunS7HLLeoyFJvS5azRduwujYnH3nXhJ7qNfviMrZiug+RVEAKIePprPXl5enQC4vX8+m4EgKHumJHgsIr4+7SDtUxZflMQxirdB5ZmzoXu4kBY/r8EVhIi25vgByy5xbb05aSKrNnlvxkN1u6I5ZYIgsOiFNRXa3roRwQyWxVQE5DDAhtcfZFWUEPsV3KbzjPMZMp1NQxmXLUofVutzxPWdvb68Exz4kgEJrNBYtSzMMU1X1QFTT1CyjUXW9zA/LNWV3IShLJQWQ3YP5dWThuF5VQGI30QW005Gv1AAmRmQ9vX1nRnFkxcu1RBWIaRiaZgHRKApLtnUSdFUzhvU3uwfLYLkDKElAdne3dj4eRRcLiCO/5Ek5ty0iIDylZdLtjwJM7s6xHoxw6q2GiDAQNtm/SFSPjj7tzHeXobIZKAlAdnd3Z9dHyS3I0IZ7jgJMRodVLykTM9giicgmU1oSoEiwey7Xa7b6w3FX0E0TKY1J7QV8hgfStUZU37U/3G4dLMbl6bqoPE3c4mB39oE/SlvKaGAy7Si1Msr1ChLAxLrH5UcFgAqdeq4oOVl2US9mIDnZ7dWb1dpQSFtqKehHR2+vZruLYVkDlQQeuwdbt9c8s6+SIIrhw+nGnp5Sxdt42lLTFPRlldxYMiWvI8lUcnj+ucweQIj1WunLT0UAy6er2dZCatldAsvTuL0Ac5lffYruyia0a61+N+DYYHdbZYJ3DoaYJHcM+3yxC47jeZ4PxWPF9zsViFhO6jFEJ4gsQIBa9Le/ACNaqC4Al6cxMFK0Y3e+A9Qjro86XEUiNWlHmumSIhekKu47ywBMrC++q15mz+sowcxSXR33+90ov0Bt6V4DdQENvXJOZkI1ABq3v7zdT93CUOwrqEmqWFGEYFdpWyKbUUNMzIfZyGe5OHR5TrcqQ+pJTBCDM/qP3rWvr27nsMnXgAZgcQAXzH94u//uKGULDixwW2nbUxTgeZHlBFxqV8iQXKbS1P6M3W4HeAedbhMthpJzLUZr1HBbKwHqy1H37Yer29kc2NIBRici4NjBwdZ8tgM3Cjs6SttCjYkKVJz1e7ncEBqPGFbe9oluAD0pfvm3fxSgkojiRAJuSPH2Mpk6WZ8CA2C31xxFluoCYEDsAqT99vr6w9XV1c7OLRC409PVhw/Xnz524Y8Qi9R4SOQbw0ZXxSwrCKTeFaUPn8kkNTbtS8tUJncZ2/s8qem8YPZluHwQlwNBIuotGa2TUiR3nKb50IPCCEfFCJE4ZwESASJ9NM7rTvDUZINyp4cCeCb3DUPVjDTRvjCdSBawmbqkyBJtGLjaQx3K4JCc6/gdRVYad9gAOISBAakr4VBAkZpwu70QAwdhYqUl8Rmp+mXppKQJag3WPiiNDeelADMCVoRbp9CRk4y7tgi1YUBHUEmcQqEE+w/lBuAPK8jYSxATMfU9FRmp9UU3QW6rQEVy7FiYawoiPMS0mDdImUqXDgA7SwaJ3qzINZXuMB6sRAOOZqQHISuQPfg9VU2AU36wXQZTpF9sQX1gBwaAR3QlOToxpUNWWuuUasVuqDh6EIOJIK5p1WjsRU8ANkncrNhn3+agDEWe2fG5AL6L6SZiV9acqn8PMilKIG+OMHql3JUTS/ld7KfbE7eBKio2lDqtuDBw+8RHtVA8Kk3gT8JwiM8wXTh7aISPsTVz5K5gMAsYS8A+F+R5hc7nz5tfT+piyYnNI+fGbYBIXH+hSggmUCgFmZDQzSnUltSelJNqKK7oV/AsGfyb2msh3YJ9QjZ2s3gj20CcuhlRC8dN9KRR2fPk9B/uWdw+V3JjU7ckw8klph1U4O7o7R700xVcW0XpYUjMpiR3OsoYTi4bKDkQ13AZTxohd1JpIkzQ/BjsZo0o1l5Nt9hneXVVW7DEs+R8iehE7nF2YvRdL3WSEzGAkqgjBftpUEu9JsmZJjILvY+m9th11GsaaL0MsRAdYF0CTV4caDt4v/BQOoIaiU29ibHovTfOXsp+/PcsFZ+z5fhjmr6dfBFCz+TNKvVBJiJMh0OkIrQJ7RSAmqhuuFME/FVzbJxl4+RlL9cQxfiod1WNQtCpxSZQhFJ6cDbxSsDC409xZC7Zub9nCfpAypE1gSavwg2qbAsTCV0Y54LjjLlDszJlEI5D9SGEsQfoU4s90dFjfrfSWPjagXvciSJVQMBsJ60zx6XM2Rip3dArZwyhDcwG0QtwMfAjFl1QGRqAq3tVGGBVmuHG+05PN+IBxkSLhmG2nPZ6BiwPriYpY0Ve2oblbrnBeOWCpg5y4Lwq3IG1zcw0buoqU13boF2HnZYadCt7TS0enzpWrC+xNCg+tDoskkwyl7LtlNdUOsWaz4SynjWWYCwB0zu1x8xG9yyVjSm6AoAENWsFRmR0N8VaMb4zzSj+rhuv9gCdi3eXQlI39arNhi6d8gCu7YGGATIWmTm/G9k0H/Crjl6+wGVkENK45HClGzcLqRw/0ul+TS8pTGpOrcnlZEaT3S5SEuiChei8yWakm7Qv8uqAbLPfVINOxIwbZ88M89o6IvJX9NqopI706lwnxwI1GSAcQCAKHE+EK/0iu7tICwQhdPdrZygGfqWEFoOyUivHSa0wue8tOe5RfBeEnRGg+h6sOLAboSHJEaXKsK/ag/SrB2YlmXrgV/y4CijlRKzubTLP98tKqcIVYg0m+7C9mzAQjWdCQ3YCFYCkG15a09Xgsxu7414xCUDFvVuBH1wyHpeJZaYlG1VIEEBIEtfuARthVHVhGJ7gqVrg3e14f1CXTzzZdh8+er+rJLkfHvE1AQT1cXfaYV62B7hErDFwtoyws8iL3bSaIBO4SdbmZf0ykiwrenN2VVdTdp21WQPoi3qTCfsA+YRfYuGgXE7Z9cn7StUkJYJGh1SxEQlJiFSZQ0PRjGTZbERWiPp6L20rn8yf/2LCTaRimL20aek9Jn5pC91I92WlzPQCRCP2TGJWePKcr11Gaj/BrVA6TMsK4ijqvU3G+cYUrD1MS+j+jLHgu0qhLMqJjhYozOYztqlXo6hVywvr2G984fep3bv0rGr6jt6M/ZcstRdl0c7i9902G98WcSSl3Y7FrYGE9u9rXSVaz0x54XC3O/ya8rw7iFdM7vxBJARK0vq5GGzDhS9grPS/cUha/c6iJakhS9a1ZiK4bS/qFfPvOqH7K5FM0VtjLWVVS6wvrFgLSdT/tiGRJ94aqfuwocRxc4oLK+592x5nbCeSmxQxJknjWvx+228bEa9XWiMjKxXdpMuNj2v9p0iTW+fVPP44ZauixpefdPYlxJbWWojaG6RkhbWFAzTftHQ4f50BppqfYl3V/0xISimdSilSi3cTQWmuNhzb87+lbA/LWtlIQemk1GzgLr2o12rollb89lRprW6Mjp2W4vWWryTBL/NWP3NHyq9VvEyaeXWWEnMGT+FJjKP/p0jqysTlvmoPbwivfev9BIskvS95KTP7ZHPrLzRN74tLuttY6kykYK7fdyGCpwMmZm79X5YqfjH7t+eDH07wWwnMB3i3yTcreNK58W13Jt2r2GUEifVtjWg9qHjEB//Z5fiKBM2n5hestLh32ctVh12dH1bjOYZdGfQbXZFv1JpK5A1nGana4MVxK8ce9Jujrtgd1RPhZaZTrw27ojDuN2X2Nnan3tfpO9abQ1Df5NKATnPUFoXhxCPzz4P5GJ7batM3h47Escte5PVaw64gtkcT906Js9e3TLgQUxB1rcFW0asZBnxBIC8IompqZiPoZa6bhg7fG6gb4ezeTttS0V3UcjVyf6dqBrfRTc2gpZ+0NXDcQDfwhvBiQbRi2yoMdAPfVCfvpCdJn10TNVPX0RxZXzDBpWG/rT3gNbSaEj5PNbT2plNC7VqZWZfHDMsW+uXYqzU18tRC2wyOCXTVO3mPG74Lo22ZVvw2BkllTexUIST1oAxlNqmTjcRrYEnS5+CXcMCpjmGu4okAAAfmSURBVDJ+sEY9UU+LXaQvHDFLF09nC8xYasdIvGuUJFw2Lyaf1zKYE8uhrnliYoUb2WGCw6/6gXs8VcO3/rCL91pW/NKg5g66AkLSKZNn4mvsoRG/ZMPgzrfoO7YNaCRhG8n05X2aVbaIUqi4pmh5FS8ammboIhl6kVHpBVODtsBMeu8Q3UG3IYW1SMpXpnVssrUIZ72O6GNREUjLGxkWkga3R64VcdOUBNyQugGuIe9CNjeaEOqQEpvdesXv9IbBdLEcLq+uQ67MVHDCNSYool9GvuNUqnTjO9S5I/A5x/HrwxARH99GNJtoAhtWGBH/VsI6YGWUMgJYjALG4RVd4Be4vYCtdCPbDuBXjgGVGhFdxkZt46WkgtaCrFpqRE1qLSEbKljxPk8PV8Xs4zbBaTmZ+t9Ca/Ci+ShaVZEMLEu4nfQGDq+CpmVqxeuwG8QAANcwJrQ7xMU/i20CkWISENgSVVH7wOXYGKoxeaUhMU28nnLxtJUUIS9lshKahe+l06QTr2UkNol+i+WjaPkib8VvgxdUBwRVIfVgvwmNkchbvQAwCske/iYEI+fEBzdZgNQe0ANBG9UEPDVlgrXZJCjieJcu0l9LSlgX1MTcuAmCINQEnINim8zgi4xIHxBu4fhgnYsrHWzhhLcqoH2nZOmfIPIaug4vaaJt2sIGES7sI0mfy14sADgFAeom0k+i28HGBFiV0ldbLxBc0ySK1MqDbr82Y5MEEqHLYkKU3ooM82YwGYQbfeG3MNK+0wn1aGSfGqIlOGB3Eq1FOl47kYuFSNvg+4c7RmHc9EVv1EiRDC5DciAWPy9El0KEGYHuC8h2C9PqWezje1iNg2USGewcKNvRNxAKZL5rx2CsjJi0EdCAFzEruEyDPJFd74NPCTAaperuMpFIEROpZRgwYHFJc+NvVdq6TJDq0wjCHIfRPOZuM1ASXOeA7ehacoMwGWlTfFO8fQWzRRhZdGxE7s3QXVCw8AixRGODPbWwuQqJpcgYKsaeMEvSE4lOQ/zbpegpsJWDZby0XYOGJvRAamWT8CzQItJp5jLXMopIfDChtwyNZNhFxFHTonniRj4YM0TS1Fqx/IpgEDSZG2AiBm63ZARBdJnQJ27X0PxIfwf1P/RlplRJuDHesBQRWC9uNz5xyUQFCO9EHB/pwA/dHo5K+PiS0iVCmik5eEYUPqBKYinhEuZ6gImgUqvzjCDKJxPeMVcwV9FtB/BXiezbQAI3SsY4UiMKHAY/5P241AcTG+Q1ZuCHNEGQkhAUN+nRJ82UCHcLVlTfHMITISlwkkXrH6ZUpXaQzODGjY3N2TQ8r7M1CH0KKQ5GiGzlEGgYqV5QBmITArMSgTBuqPSEvjfpYKEjRXFIyHGNzoUiDRRka6j+Y1r/cjhlahJwrMsFbiowLcrKtFY0WKW/S2wPEWHXwHbpvh+0DE09iicUTNeB0ksERT3aU7EWJPFem4rJNDXIdmiWGh14pMkr64olkmch24h5TZ8aG63VOMKXwa5cuAJGtDZNM1aGfgxPKOWwOTiY7RAUN8mDCSQ6gzRaD06JGrOEFyToVpSmBvg0k43OSPcoykr9SBRSCHcVJLUiGU6g57iWpJHJ68AJeUoBd1HubJPXJjHPJiEkjUKC9y5vMshBOCIMpbgmem1IxHc5AGwSmsVpikTYkXF8srFLK4QE/17oijQMIQ6APD1UMkLq+DvZ2g5TRcUKto0mGBAfHNnZlEBCWrgfEtsGW3hQ304D7k7bRM8ghoMUTgK+VSBNgsOSSmA+mAzgErNwTZlkBk1NE10EjwgQabPVjMdtNK4iSkUiMQQYfG2c3mDLEHgGl61PObx/aQh3h2lHtHItobqlNT3H77UBESDjDQKGQa+hwd2NMEa4j2avWB7hZSU4p0N7zgzLXTyh2yPZODxhjzqqiTuCHKNFOl1o3haoKHmqhSGilG42mzzauEKJBDmVtCCMwKiP5BZ0iJpMeks2GfdxKWnpsC8MXo9We9Owksc7PZX9DtNbAjJ60bTExlDHF5d91D6CqhnjYRfTq8rG5HRvqLKCwyvqE6uxeFCKBFp1qvdo4hHIpckQeZ/FM9jsFEuNuDRRhR/MFkeC5Y166M0g4sSi4kYImAk2Y7lCyAUTISk5rS5etUlUluwNJhLSaUXe7dOjaR2pFW7CUPXdSH+EV2auFSyP+qMWe+tYxCFHuitrNKvdbCiswj4YgE5KSz06aiSfahPmrUhZeQ0XMbLZqUpfmueHp4qwG7ASgYRQSaD6vWjsOQrx1EWPqg2FBDvwWD9PJmxhAe6kTNhpw9FBORyvEMywxYZEbfVyC2odhsTEBQjHJoCxuBTaoALgksBX00570RpBciF9ahgSZEWiEbYzqTONV/doV6xerqEyRCApo91U44sQZNIGogFfY08gERJdfSvE6VsG2nvdGvfCsCMzKoNjmkbe9SCVTfClTaJcaWzBnbZNix8EVurULLhlu6kZkddDtMomvHUfu0GvaBqa1sWBh1QE/NVg0qt6Gf3qBrdsa6hctaAMhqGJLrmTZgj9emJuVw88TzWsBolELBPccpPglYjdces9uROjZc+th6tl7IFb8RiSciq9uluJ+jZ0GyWehoPbuOFcafY2jh9b+ezV5chDgOH1QBnoxYWBK/k0d9jzFrw7uSDXe5Ugw3B7kv+VLq/+Lt/lu/wnyf8HeWg68cpAU3IAAAAASUVORK5CYII=;" vertex="1" parent="1">
          <mxGeometry x="870" y="310" width="193.59" height="130" as="geometry" />
        </mxCell>
        <mxCell id="ycRzXGUNBEVxTpP__h8B-4" style="edgeStyle=orthogonalEdgeStyle;rounded=0;orthogonalLoop=1;jettySize=auto;html=1;" edge="1" parent="1" source="ycRzXGUNBEVxTpP__h8B-2" target="ycRzXGUNBEVxTpP__h8B-3">
          <mxGeometry relative="1" as="geometry" />
        </mxCell>
        <mxCell id="ycRzXGUNBEVxTpP__h8B-2" value="" style="shape=image;verticalLabelPosition=bottom;labelBackgroundColor=default;verticalAlign=top;aspect=fixed;imageAspect=0;image=data:image/png,iVBORw0KGgoAAAANSUhEUgAAAOEAAADhCAMAAAAJbSJIAAAAhFBMVEX///8AAABhYWHNzc3T09PCwsJKSkpycnL8/Pz19fXg4OC0tLTj4+Pa2tp/f3/n5+fv7++6urrGxsZoaGg4ODgnJycXFxeXl5eKiop3d3c+Pj4vLy+fn5+urq5PT0+oqKhZWVkeHh6FhYWQkJCbm5tFRUULCws6OjohISEpKSkYGBgyMjKhW/z/AAAIk0lEQVR4nO2caXuyOhCGiYJsoqitS91QW63t//9/h5CFCQFJ+2IRz9wfepUIYx5IJpNJ0LIQBEEQBEEQBEEQBEEQBEEQBEEQBEEQBEEQBEEQBEEQBEEQBEEQBEEQBEGQ/w3O6IOQz9570HZF7sQ7kbz1267MHQjmBDJruz6NMyUFrn7bVWqWqCgwldh2nRrF0wU+WUMd5bLcN/n/tO1qNUfMJZ0zTbHLD1/arldzbJiiV089JlGrtWqSDyYolgU9VrBosU7NwvSs8oIhK0naqlDT8G7ogCI2/L+2VqWGCfRex9rtubUqNcyYKYSx6DorObRWpabR/IrPSt7aq1LDsCdG8oIFKxi1V6WGOTFBrjgWUapz66JOMVQjUUeEbcpJ/SON5w6z0Cux8PD0hKZRONl8i4MTOGPylYfkxw5q9EkZ+edeon7SwRSAUyLQlp/68+JnYYt1/SVbTSAQoQnspBMqPkUwOezpAmGY3gD+n6RMYiikBwTkKZzecvQp/k+Uax2K7J2wvrVeydtkc+5k6+mGmma8fM0qf1gOYfGFa2KutS+aLEyq9hXRAR1Yx2eyo2bWtMRP797Omu7Sf4kfn8/Ai03k/aNxsZ39d8dYin2dGsoEhZ7nsdugnMUU9viRSzwa7I5PqY6Q+l2PrOL46DvfmcIxiSIZ5e9JicLB/RSG2ReslDI+4T/KAh6oz6sUxmT3Ts9KhaVOKkkf3HKXfeDQZ0MV5hcOyQMo5N0T9K2ZVqIoHI0CQhXuLzvLOVtkaK0n2QfMmfnZHeIXrh5B4UXrGmFeIw5U6JEwIpNU4XFvWd/HKHGtCxt5nG/P96lCX/pOLu7iXltUeM3KYPKUO9c8IlAULsjb5eXVytqiTT4uH8TbfGWfODR5p7RSnl1IG7U1nNnWnylUPc2L9qWTmwqzctLPdLzRuu+W1mC+Dc++Q/0qVbjZvMPrQL+8r8LgtBaN5h0Mh7wfgnGNdx5wDlBoZy4p3PvpkOG7tDVG6R3b9pK9FdHxxvX80WjEmwnrmZe/UWgPCMSVfoT70o08U4Tp4GJ1tDCHKUxALe6ncEWKbHklxLRJjvA8u+qCq/9NIbjubgr9V00gcy7jXX7MXH7MBcJu+PgKy6eHJLGWyvH1tN3I4FWJrB5e4Sf5Ocpa/6MrdGW1V6FtTxffuh6NvWLhwRXaotYyL9M/KGo+J6TIUjXx4ArFkijM6sO5Yvq44oIn2hdMPLZCkRxVN9HI1NOKDfULoC8ZF208tkLuL7eFYq5mIo69LRO9XpbsJ/qtwumfKGSOVNt5sS30TYofV2RnCgodxkTERfYxC25n9HZ5k+wzWhw4LNk+mMqzCwq5obDMkJUZkk+gGr+8Z4mHaHY7i3N8Bg+voxfZvs+O+D76wYYo6LMnEWjxNaMo30RB21Zu6Da8G2pdS/TEnysUAnm7B5vJCJ2Z5Wb3yie6QiGQ3331hrjGCqdVJy5/qVAI5O1nRFR2xgqFQJ64PVYbuo1TdeLidwqFQJ64KqiQ1CsUAif1hm7T8DMUAnlCWWaarqcwlPNPYtAPhUB+p8birFdqCERd9ZVrth8KgSKnKyYiXHD/DCs2nLJ2MuhPUxzFl67UCy0xx+GC7Tk0dJtGfakQKGZWIiCUg4x3UCpWOR7OCncq0gxdjRU2OB7OxI2X8d+qcJy3NnZUEdMkwj3JOeiocJzvVDNQeDumkcUGMY0gKBhRcndK965QKMjvDGvdMK0gluYNFNbEpTwINYlLOfmix1h7hLLMRGFeo7jEUGyssHZusTSdW2h3qtRPn00VBlqxaujLWGHt/JDoY1Hp/JAU68vmlQVn1TNVqBm6VBuq4Tdz/I1iQWml+c4jlmDeqd82M1UIvNykzJBrrrCpPI1ALh//o8J8KZ0p/Pi9wspcm9o8lVyb0mRUhXLUYv2wsP/vYq5QxiGlhj5+oLA6X+qDTHEhXwqXopnCV+GgPnkxX1xVF+lJvcK5GPG/+FrCUL1zuiEDKnPegcj2G+W8eYI8USqhDLVKpF+hcCc7zk4xpLhwxVFHk/q1/6hq3YIHN2brFiJk4U4i4Y8EoOwSrM7TiJCFO23WOJRm+pIbCs6j/dJgAwxYe9qA9sA9reHak0g8Mm/Dj8By3Um5PTcyUWIHyAQaAu1mkRuKiR+kj9DoZa2y9cOB/FLBzfVDMVFlToIfyE0AQmC9QrmiMISGZNUWwJBrW2/ht+WZbNpuYg2Yd9M5MJhGszTP5E/ykbZeoZgwnT1wV8mVGbpAQ6ljG9A/Hwb7jsoUsmdYso5foVC8YZTAamoYKBSGmLdJqg0daCXTR90z2KdVppD3Q30vRvkacB7KZ07CO5NSDBTKnTzM0KHS0MC3dk7afk023pcp5KO+tp8G2lOziWIXYObc/Ktao625Qmko8zb+WjUUSkPTnnWyTvFGmctWULYnSgwA9XuiEnEoZuhsCIXZtvWwZMRPckNMoQzPVpWGrgEwdBpE/ngFzFRRsa9NDJQ39rVFMzclD7ldBm8MQ1HRl/RheNmp3HHZheusICvIZy6rckPfNMMIDEWjnlv/pl3l3sQ8Vqzcm1hL4IThtIkNm/9gqLi/FEQIM1JCo/tL/wJ9kguiyYMusHN7hPVVXjh58DWJxbzVwxOXCIShaPf36ksBle9bOCAP0MH3LUTwUHxnRlFi83dmtt3TJ+cD2ntPBgusHYG3wLxgUZDcdfikXX//8GleVw90B6m9kdhtKt8DfhqFPFcHQ1cWXs8rL+kaTKH+Pv4dd5T/MTwxp/2mgsmUshvwwUH7XQz75lVdouK3TdZt16tB8pz+k/4+TflvDP18q+EjY+sCP+uv6hTab319PtlvfdH1G0XgU/0MluDZf3OP8uy/m4ggCIIgCIIgCIIgCIIgCIIgCIIgCIIgCIIgCIIgCIIgCIIgCIIgCIIgCIJ0mP8AvdRk0Zd6tPcAAAAASUVORK5CYII=;" vertex="1" parent="1">
          <mxGeometry x="250" y="185" width="160" height="160" as="geometry" />
        </mxCell>
        <mxCell id="ycRzXGUNBEVxTpP__h8B-5" style="edgeStyle=orthogonalEdgeStyle;rounded=0;orthogonalLoop=1;jettySize=auto;html=1;" edge="1" parent="1" source="ycRzXGUNBEVxTpP__h8B-3" target="ycRzXGUNBEVxTpP__h8B-1">
          <mxGeometry relative="1" as="geometry" />
        </mxCell>
        <mxCell id="ycRzXGUNBEVxTpP__h8B-3" value="" style="shape=image;verticalLabelPosition=bottom;labelBackgroundColor=default;verticalAlign=top;aspect=fixed;imageAspect=0;image=https://upload.wikimedia.org/wikipedia/commons/thumb/7/70/Apache_Flink_logo.svg/1200px-Apache_Flink_logo.svg.png;" vertex="1" parent="1">
          <mxGeometry x="530" y="310" width="265.31" height="130" as="geometry" />
        </mxCell>
        <mxCell id="ycRzXGUNBEVxTpP__h8B-7" style="edgeStyle=orthogonalEdgeStyle;rounded=0;orthogonalLoop=1;jettySize=auto;html=1;" edge="1" parent="1" source="ycRzXGUNBEVxTpP__h8B-6" target="ycRzXGUNBEVxTpP__h8B-2">
          <mxGeometry relative="1" as="geometry" />
        </mxCell>
        <mxCell id="ycRzXGUNBEVxTpP__h8B-6" value="Market API Websocket" style="rounded=0;whiteSpace=wrap;html=1;" vertex="1" parent="1">
          <mxGeometry x="30" y="235" width="120" height="60" as="geometry" />
        </mxCell>
        <mxCell id="ycRzXGUNBEVxTpP__h8B-9" style="edgeStyle=orthogonalEdgeStyle;rounded=0;orthogonalLoop=1;jettySize=auto;html=1;" edge="1" parent="1" source="ycRzXGUNBEVxTpP__h8B-8" target="ycRzXGUNBEVxTpP__h8B-3">
          <mxGeometry relative="1" as="geometry" />
        </mxCell>
        <mxCell id="ycRzXGUNBEVxTpP__h8B-8" value="CSV" style="rounded=0;whiteSpace=wrap;html=1;" vertex="1" parent="1">
          <mxGeometry x="290" y="415" width="120" height="60" as="geometry" />
        </mxCell>
        <mxCell id="ycRzXGUNBEVxTpP__h8B-10" value="" style="rounded=0;whiteSpace=wrap;html=1;fillColor=none;" vertex="1" parent="1">
          <mxGeometry y="150" width="1120" height="370" as="geometry" />
        </mxCell>
      </root>
    </mxGraphModel>
  </diagram>
</mxfile>
